HIERARCHY
ROOT Hips
{
	OFFSET 0.000000 0.000000 0.000000
	CHANNELS 6 Xposition Yposition Zposition Zrotation Yrotation Xrotation 
	JOINT LHipJoint
	{
		OFFSET 0.000000 0.000000 0.000000
		CHANNELS 3 Zrotation Yrotation Xrotation
		JOINT LeftUpLeg
		{
			OFFSET 1.363060 -1.794630 0.839290
			CHANNELS 3 Zrotation Yrotation Xrotation
			JOINT LeftLeg
			{
				OFFSET 2.448110 -6.726130 0.000000
				CHANNELS 3 Zrotation Yrotation Xrotation
				JOINT LeftFoot
				{
					OFFSET 2.562200 -7.039590 0.000000
					CHANNELS 3 Zrotation Yrotation Xrotation
					JOINT LeftToeBase
					{
						OFFSET 0.157640 -0.433110 2.322550
						CHANNELS 3 Zrotation Yrotation Xrotation
						End Site
						{
							OFFSET 0.000000 0.000000 0.000000
						}
					}
				}
			}
		}
	}
	JOINT RHipJoint
	{
		OFFSET 0.000000 0.000000 0.000000
		CHANNELS 3 Zrotation Yrotation Xrotation
		JOINT RightUpLeg
		{
			OFFSET -1.305520 -1.794630 0.839290
			CHANNELS 3 Zrotation Yrotation Xrotation
			JOINT RightLeg
			{
				OFFSET -2.542530 -6.985550 0.000000
				CHANNELS 3 Zrotation Yrotation Xrotation
				JOINT RightFoot
				{
					OFFSET -2.568260 -7.056230 0.000000
					CHANNELS 3 Zrotation Yrotation Xrotation
					JOINT RightToeBase
					{
						OFFSET -0.164730 -0.452590 2.363150
						CHANNELS 3 Zrotation Yrotation Xrotation
						End Site
						{
							OFFSET 0.000000 0.000000 0.000000
						}
					}
				}
			}
		}
	}
	JOINT LowerBack
	{
		OFFSET 0.000000 0.000000 0.000000
		CHANNELS 3 Zrotation Yrotation Xrotation
		JOINT Spine
		{
			OFFSET 0.028270 2.035590 -0.193380
			CHANNELS 3 Zrotation Yrotation Xrotation
			JOINT Spine1
			{
				OFFSET 0.056720 2.048850 -0.042750
				CHANNELS 3 Zrotation Yrotation Xrotation
				JOINT Neck
				{
					OFFSET 0.000000 0.000000 0.000000
					CHANNELS 3 Zrotation Yrotation Xrotation
					JOINT Neck1
					{
						OFFSET -0.054170 1.746240 0.172020
						CHANNELS 3 Zrotation Yrotation Xrotation
						JOINT Head
						{
							OFFSET 0.104070 1.761360 -0.123970
							CHANNELS 3 Zrotation Yrotation Xrotation
							End Site
							{
								OFFSET 0.000000 0.000000 0.000000
							}
						}
					}
				}
				JOINT LeftShoulder
				{
					OFFSET 0.000000 0.000000 0.000000
					CHANNELS 3 Zrotation Yrotation Xrotation
					JOINT LeftArm
					{
						OFFSET 3.362410 1.200890 -0.311210
						CHANNELS 3 Zrotation Yrotation Xrotation
						JOINT LeftForeArm
						{
							OFFSET 4.983000 -0.000000 -0.000000
							CHANNELS 3 Zrotation Yrotation Xrotation
							JOINT LeftHand
							{
								OFFSET 3.483560 -0.000000 -0.000000
								CHANNELS 3 Zrotation Yrotation Xrotation
								JOINT LeftFingerBase
								{
									OFFSET 0.000000 0.000000 0.000000
									CHANNELS 3 Zrotation Yrotation Xrotation
									JOINT LeftHandIndex1
									{
										OFFSET 0.715260 -0.000000 -0.000000
										CHANNELS 3 Zrotation Yrotation Xrotation
										End Site
										{
											OFFSET 0.000000 0.000000 0.000000
										}
									}
								}
								JOINT LThumb
								{
									OFFSET 0.000000 0.000000 0.000000
									CHANNELS 3 Zrotation Yrotation Xrotation
									End Site
									{
										OFFSET 0.000000 0.000000 0.000000
									}
								}
							}
						}
					}
				}
				JOINT RightShoulder
				{
					OFFSET 0.000000 0.000000 0.000000
					CHANNELS 3 Zrotation Yrotation Xrotation
					JOINT RightArm
					{
						OFFSET -3.136600 1.374050 -0.404650
						CHANNELS 3 Zrotation Yrotation Xrotation
						JOINT RightForeArm
						{
							OFFSET -5.241900 -0.000000 -0.000000
							CHANNELS 3 Zrotation Yrotation Xrotation
							JOINT RightHand
							{
								OFFSET -3.444170 -0.000000 -0.000000
								CHANNELS 3 Zrotation Yrotation Xrotation
								JOINT RightFingerBase
								{
									OFFSET 0.000000 0.000000 0.000000
									CHANNELS 3 Zrotation Yrotation Xrotation
									JOINT RightHandIndex1
									{
										OFFSET -0.622530 -0.000000 -0.000000
										CHANNELS 3 Zrotation Yrotation Xrotation
										End Site
										{
											OFFSET 0.000000 0.000000 0.000000
										}
									}
								}
								JOINT RThumb
								{
									OFFSET 0.000000 0.000000 0.000000
									CHANNELS 3 Zrotation Yrotation Xrotation
									End Site
									{
										OFFSET 0.000000 0.000000 0.000000
									}
								}
							}
						}
					}
				}
			}
		}
	}
}
MOTION
Frames: 8
Frame Time: 0.008333
9.976707 17.386421 15.991330 5.730607 8.757014 12.189223 -0.187533 4.690554 5.903033 -16.040288 7.876721 17.794906 -3.357987 -0.817851 3.570925 -0.491535 10.689236 31.125896 0.797874 -5.673547 -15.847145 -2.654417 1.122924 -5.036910 7.805948 9.955233 -45.308793 -1.502827 -16.050548 37.095144 -0.223880 -3.704415 12.789682 -1.815124 8.469791 -24.150366 -4.235487 -7.291897 -3.572518 1.721758 -9.077589 -5.401527 5.749877 -5.854870 7.256082 -10.514760 -0.903841 -18.235755 5.454701 1.471383 6.558422 5.945563 0.432041 8.932079 -0.708814 -7.347483 -0.124473 -70.176195 -31.794696 47.547262 24.857796 -31.918436 -9.637211 -0.300961 1.552243 -16.783680 25.618981 -26.090123 -12.560425 -7.125000 0.000000 0.000000 -2.873628 -0.344895 2.893762 0.351725 6.122646 0.684869 64.984677 -29.766374 4.517266 -5.924379 13.976587 -2.156879 3.891511 2.241014 -2.005495 -33.160426 -21.004838 16.124616 7.125000 0.000000 0.000000 -9.241323 -57.143772 2.763429
9.968910 17.398378 16.148972 5.253954 8.624598 12.219883 -0.326468 4.600791 5.890028 -15.526988 8.186018 16.260111 -2.935311 0.331903 6.369225 -0.620413 11.425254 31.617928 0.921605 -6.112128 -17.111335 -2.591587 1.118733 -4.982472 8.483035 10.024888 -45.333269 -1.649718 -16.212412 37.773699 -0.291613 -3.272631 12.490415 -1.672291 8.121370 -23.097592 -3.732310 -7.183338 -3.628868 1.748086 -8.987899 -5.397849 5.742683 -5.789796 7.276403 -10.468411 -0.912348 -18.339225 5.370844 1.455758 6.537520 5.876886 0.418910 8.963341 -0.680902 -7.338859 -0.132689 -70.201520 -31.571069 47.936566 24.987256 -32.079065 -9.722438 -0.324375 1.554230 -16.810644 26.053298 -26.303058 -12.902485 -7.125000 0.000000 0.000000 -2.640191 -0.683084 2.673174 0.388031 6.130955 0.687980 65.043240 -29.586592 3.845511 -5.855910 13.841233 -2.144721 3.911647 2.242375 -1.502625 -33.138962 -21.344387 16.348958 7.125000 0.000000 0.000000 -9.197393 -57.560649 2.845557
9.969999 17.417234 16.301543 4.669170 8.481376 12.157207 -0.556130 4.344677 5.849573 -15.093130 8.331022 13.491939 -2.214166 2.349797 11.527856 -0.696526 11.423489 31.490770 1.000476 -6.362181 -17.839891 -2.478540 1.163440 -4.922168 9.266883 9.930625 -45.209061 -1.780718 -16.316865 38.382585 -0.383084 -2.758775 12.249481 -1.388818 7.434550 -21.019820 -3.025991 -7.034893 -3.550270 1.774346 -8.873721 -5.392721 5.647469 -5.694438 7.274012 -10.319598 -0.937978 -18.565383 5.192685 1.397104 6.535006 5.720610 0.377017 9.076834 -0.635934 -7.345167 -0.149091 -70.260817 -31.418369 48.330073 25.086442 -32.191369 -9.789192 -0.337044 1.564508 -16.678322 26.482224 -26.568663 -13.265508 -7.125000 0.000000 0.000000 -2.425285 -1.083973 2.472023 0.425992 6.165856 0.684177 65.122447 -29.372180 3.360961 -5.802161 13.731473 -2.142098 3.936807 2.250791 -1.265819 -33.246143 -21.637316 16.611196 7.125000 0.000000 0.000000 -9.325322 -57.939414 2.970662
9.965981 17.434605 16.454223 4.179656 8.330328 12.076071 -0.674895 4.139164 5.741573 -14.742929 8.505005 11.426340 -1.494487 3.931011 15.638331 -0.849134 11.938431 31.444968 1.019518 -6.423625 -18.018555 -2.391194 1.191259 -4.852366 9.989508 9.891288 -44.993567 -1.888964 -16.386602 38.880218 -0.447364 -2.358259 11.961659 -1.161405 6.819425 -19.190022 -2.514175 -6.913455 -3.473115 1.801328 -8.767843 -5.371160 5.624180 -5.615984 7.365643 -10.209692 -0.956057 -18.763371 5.085265 1.357177 6.483459 5.611965 0.359187 9.113972 -0.606362 -7.330283 -0.150273 -70.256145 -31.313934 48.743870 25.144938 -32.280245 -9.829485 -0.337532 1.570729 -16.479414 26.734852 -26.785847 -13.503982 -7.125000 0.000000 0.000000 -2.310997 -1.383187 2.367788 0.475679 6.187393 0.693772 65.168940 -29.047943 3.023416 -5.747304 13.621711 -2.133572 3.954955 2.261338 -1.165753 -33.333928 -21.846153 16.805971 7.125000 0.000000 0.000000 -9.434344 -58.211679 3.067472
9.958989 17.451112 16.606966 3.745616 8.174722 11.984187 -0.729086 3.963116 5.594243 -14.441440 8.695861 9.769834 -0.775660 5.257956 19.138489 -1.046282 12.754239 31.446538 1.003723 -6.375246 -17.877028 -2.318812 1.209246 -4.777034 10.676484 9.883934 -44.724920 -1.983962 -16.436125 39.313070 -0.495812 -2.023739 11.646536 -0.966636 6.246046 -17.504614 -2.115614 -6.807742 -3.396800 1.828730 -8.666798 -5.340030 5.642772 -5.547374 7.512022 -10.122441 -0.969740 -18.944957 5.019035 1.328155 6.403360 5.531055 0.355369 9.106650 -0.585753 -7.303059 -0.142593 -70.214225 -31.237604 49.169482 25.179741 -32.355479 -9.854370 -0.330928 1.574588 -16.241734 26.884825 -26.974836 -13.669933 -7.125000 0.000000 0.000000 -2.255296 -1.623197 2.319985 0.532194 6.201148 0.711170 65.196384 -28.659757 2.771469 -5.691801 13.511949 -2.121610 3.969019 2.273127 -1.145308 -33.410419 -22.006025 16.961462 7.125000 0.000000 0.000000 -9.532356 -58.421930 3.147806
9.948489 17.466711 16.759379 3.353590 8.069257 11.818307 -0.727342 3.825402 5.425170 -14.140267 8.907716 8.435572 -0.048141 6.370169 22.199965 -1.335853 13.737731 31.140461 1.035338 -6.470190 -18.155413 -2.248001 1.211015 -4.685514 11.340001 9.863402 -44.322766 -2.055977 -16.448696 39.653308 -0.548663 -1.680676 11.241230 -0.905133 6.062718 -16.966574 -1.807483 -6.716922 -3.259277 1.853513 -8.574636 -5.315723 5.700276 -5.479611 7.522450 -10.123957 -0.972712 -18.818065 5.042985 1.312956 6.292614 5.532538 0.364618 8.977094 -0.582921 -7.271464 -0.123917 -70.249033 -30.986760 49.683004 25.210565 -32.440426 -9.870549 -0.322605 1.569767 -15.987773 26.938642 -27.063609 -13.735153 -7.125000 0.000000 0.000000 -2.237177 -1.722898 2.305207 0.564503 6.222349 0.743684 65.281956 -28.428818 2.569124 -5.654844 13.429778 -2.115121 3.992276 2.276397 -1.219311 -33.685945 -22.067542 17.165908 7.125000 0.000000 0.000000 -9.899428 -58.551708 3.302287
9.936624 17.481957 16.911663 2.977902 7.983291 11.623651 -0.703844 3.702598 5.247642 -13.839217 9.127737 7.226628 0.682758 7.398875 25.090843 -1.661366 14.786434 30.714743 1.085390 -6.620869 -18.597097 -2.177800 1.206476 -4.587699 11.994394 9.837746 -43.868693 -2.119054 -16.446897 39.957530 -0.603225 -1.334292 10.800853 -0.895458 6.031075 -16.874733 -1.534518 -6.631893 -3.097952 1.877277 -8.485928 -5.294070 5.772911 -5.412177 7.480009 -10.159994 -0.971519 -18.571208 5.102006 1.303133 6.169950 5.566063 0.378949 8.800002 -0.587002 -7.238169 -0.100965 -70.313681 -30.668049 50.230713 25.239842 -32.529152 -9.883343 -0.313612 1.561571 -15.727479 26.955063 -27.113409 -13.761199 -7.125000 0.000000 0.000000 -2.233673 -1.768034 2.303272 0.587400 6.246446 0.782077 65.390134 -28.259030 2.386070 -5.625099 13.358336 -2.110761 4.019107 2.276354 -1.330043 -34.038874 -22.090810 17.389391 7.125000 0.000000 0.000000 -10.371133 -58.650191 3.485603
9.926381 17.500907 17.063115 2.503987 7.936123 11.434605 -0.651690 3.605916 5.068139 -13.440333 9.312574 6.098007 1.446396 8.313202 27.824596 -2.102308 15.978613 29.881894 1.089168 -6.632516 -18.631146 -2.104702 1.186177 -4.467809 12.724492 9.845808 -43.363836 -2.154228 -16.411397 40.155682 -0.627178 -1.115564 10.327595 -0.868033 5.939594 -16.609629 -1.093164 -6.517973 -2.865425 1.903722 -8.368305 -5.300977 5.836669 -5.317705 7.223836 -10.300337 -1.018187 -18.220146 5.191291 1.257981 6.058608 5.663020 0.365261 8.649491 -0.590928 -7.235605 -0.093299 -70.539474 -30.244086 50.802169 25.234052 -32.571329 -9.874084 -0.280555 1.559620 -15.334380 26.768281 -27.277081 -13.706361 -7.125000 0.000000 0.000000 -2.379133 -1.882433 2.458499 0.573990 6.308503 0.811153 65.575439 -28.273265 2.268434 -5.645921 13.351314 -2.124675 4.034083 2.286826 -1.456144 -34.262640 -22.215860 17.606071 7.125000 0.000000 0.000000 -10.668391 -58.842786 3.637098
